# xmcd CD database file
#
# Track frame offsets:
#	150
#	18018
#	33643
#	48403
#
# Disc length: 1037 seconds
#
# Revision: 0
# Processed by: cddbd v1.5.1PL0 Copyright (c) Steve Scherf et al.
# Submitted via: CDex 1.51
#
DISCID=27040b04
DTITLE=荘野ジュリ - サヨナラ少女
DYEAR=2005
DGENRE=JPop
TTITLE0=サヨナラ少女
TTITLE1=散ル華
TTITLE2=砂の舟
TTITLE3=サヨナラ少女remix
EXTD=YEAR: 2005
EXTT0=
EXTT1=
EXTT2=
EXTT3=
PLAYORDER=
